<svg id="Layer_1" data-name="Layer 1" xmlns="http://www.w3.org/2000/svg" viewBox="0 0 1185 495"><defs><style>.cls-1{font-size:206.21px;fill:#ccc;font-family:AmericanTypewriter, American Typewriter;}</style></defs><text class="cls-1" transform="translate(0 172.29) scale(0.44 1)">Издательство на <tspan x="1797.08" y="247.45">коленке</tspan></text><path d="M731.37,285.77l.38-60.6h-7.69v77.1a146.93,146.93,0,0,1,31.84-4,99.87,99.87,0,0,1,29.59,4.15,65.89,65.89,0,0,0-20.28-9.79,82.65,82.65,0,0,0-29.33-2.79,4.05,4.05,0,0,1-4.51-3.39,2.29,2.29,0,0,1,0-.64ZM844.15,222a4.86,4.86,0,0,1,0-.56,3.66,3.66,0,0,1,0-.57V208.6a71.58,71.58,0,0,0-28.34,3.07c-8.13,2.75-15.15,7.26-19.71,13.73v69.89a104.68,104.68,0,0,1,21.8-10,69.85,69.85,0,0,1,26.25-3.33V222Zm8.37-4.28h11.33a4,4,0,0,1,4.18,3.72v85.69a4,4,0,0,1-4.18,3.72,4.59,4.59,0,0,1-1.35-.2c-11.65-3-23.23-4.95-34.7-5a89.16,89.16,0,0,0-33.57,6.09,4.57,4.57,0,0,1-2.38.62,4.67,4.67,0,0,1-2.38-.62,88.93,88.93,0,0,0-33.57-6.09c-11.47.06-23,2-34.7,5a4.59,4.59,0,0,1-1.35.2,4,4,0,0,1-4.15-3.71v-85.7a4,4,0,0,1,4.17-3.72h11.92l.07-12.43a3.85,3.85,0,0,1,3.32-3.61h0a73.9,73.9,0,0,1,36.08,2.46c8.09,2.75,15.45,7.16,20.81,13.51,5.42-5.92,12.66-10.18,20.81-12.93,11.13-3.76,24-4.67,36.06-3.09a3.89,3.89,0,0,1,3.57,3.68h0v12.41Zm-52.36,84.1a100.44,100.44,0,0,1,27.68-3.6,145.54,145.54,0,0,1,31.83,4V225.17h-7.15V286.1a4,4,0,0,1-4.18,3.72,5,5,0,0,1-1-.1,59.84,59.84,0,0,0-26.67,2.52,97.89,97.89,0,0,0-20.55,9.58Zm-12.41-7.25V225.29c-4.38-6.88-11.46-11.48-19.45-14.2a64.34,64.34,0,0,0-28.12-2.66l-.47,73.72a90.26,90.26,0,0,1,28.07,3.37,75.53,75.53,0,0,1,20,9.05Z" transform="translate(-14.53 -9.85)"/></svg>